<svg xmlns="http://www.w3.org/2000/svg" xmlns:xlink="http://www.w3.org/1999/xlink" width="65px" height="64px" viewBox="0 0 65 64"><title>E3DF9FDC-50F4-4977-AD33-C0DB2178A0BD</title><desc>Created with sketchtool.</desc><defs><linearGradient x1="12.7936051%" y1="12.039%" x2="79.7713436%" y2="78.201%" id="linearGradient-1"><stop stop-color="#387EB8" offset="0%"></stop><stop stop-color="#366994" offset="100%"></stop></linearGradient><linearGradient x1="18.9901355%" y1="20.579%" x2="90.9239408%" y2="88.429%" id="linearGradient-2"><stop stop-color="#FFE052" offset="0%"></stop><stop stop-color="#FFC331" offset="100%"></stop></linearGradient></defs><g id="Page-1" stroke="none" stroke-width="1" fill="none" fill-rule="evenodd"><g transform="translate(-666.000000, -5868.000000)" fill-rule="nonzero"><g id="Group-18" transform="translate(122.000000, 5703.000000)"><g id="Group-23" transform="translate(544.000000, 165.000000)"><g id="python-5" transform="translate(0.000000, 0.000000)"><path d="M31.9333199,0.0181305399 C15.607776,0.0181305399 16.6271152,7.09785455 16.6271152,7.09785455 L16.6452458,14.4326652 L32.2244158,14.4326652 L32.2244158,16.6347703 L10.4574436,16.6347703 C10.4574436,16.6347703 0.0107272361,15.4499899 0.0107272361,31.9223409 C0.0107272361,48.3951954 9.12887792,47.8109891 9.12887792,47.8109891 L14.570558,47.8109891 L14.570558,40.1669521 C14.570558,40.1669521 14.2771958,31.0488014 23.5431608,31.0488014 L38.9949134,31.0488014 C38.9949134,31.0488014 47.6761684,31.1890612 47.6761684,22.6586422 L47.6761684,8.55408944 C47.6761684,8.55408944 48.9946616,0.0181305399 31.9333199,0.0181305399 Z M23.3429694,4.95064464 C24.086491,4.94997571 24.7997522,5.24504232 25.3255016,5.77079172 C25.851251,6.29654112 26.1463176,7.0098023 26.1456487,7.75332393 C26.1463176,8.49684556 25.851251,9.21010674 25.3255016,9.73585614 C24.7997522,10.2616055 24.086491,10.5566722 23.3429694,10.5560032 C22.5994477,10.5566722 21.8861866,10.2616055 21.3604372,9.73585614 C20.8346878,9.21010674 20.5396212,8.49684556 20.5402901,7.75332393 C20.5396212,7.0098023 20.8346878,6.29654112 21.3604372,5.77079172 C21.8861866,5.24504232 22.5994477,4.94997571 23.3429694,4.95064464 Z" id="Shape" fill="url(#linearGradient-1)"></path><path d="M32.3969077,63.9922442 C48.7224517,63.9922442 47.7031124,56.9125201 47.7031124,56.9125201 L47.6849819,49.5779613 L32.10556,49.5779613 L32.10556,47.3758562 L53.8725322,47.3758562 C53.8725322,47.3758562 64.3192486,48.5606366 64.3192486,32.087782 C64.3192486,15.6151793 55.2010979,16.1993856 55.2010979,16.1993856 L49.7594178,16.1993856 L49.7594178,23.8431708 C49.7594178,23.8431708 50.05278,32.9613215 40.7868151,32.9613215 L25.3350624,32.9613215 C25.3350624,32.9613215 16.6538074,32.8210616 16.6538074,41.3517325 L16.6538074,55.4565371 C16.6538074,55.4565371 15.3355661,63.9922442 32.3966559,63.9922442 L32.3969077,63.9922442 Z M40.9872583,59.0602337 C40.2437366,59.0609026 39.5304755,58.765836 39.0047261,58.2400866 C38.4789766,57.7143372 38.18391,57.001076 38.184579,56.2575544 C38.1838431,55.5139891 38.4788802,54.8006632 39.0046369,54.2748593 C39.5303935,53.7490554 40.243693,53.4539542 40.9872583,53.4546233 C41.7307799,53.4539544 42.4440411,53.749021 42.9697905,54.2747704 C43.4955399,54.8005198 43.7906065,55.5137809 43.7899376,56.2573026 C43.7906065,57.0008242 43.4955399,57.7140854 42.9697905,58.2398348 C42.4440411,58.7655842 41.7307799,59.0606508 40.9872583,59.0599819 L40.9872583,59.0602337 Z" id="Shape" fill="url(#linearGradient-2)"></path></g></g></g></g></g></svg>