<svg xmlns="http://www.w3.org/2000/svg" width="57" height="57"><g fill-rule="nonzero" fill="none"><path d="M21.153 28.52 9.344 40.343l14.84 14.865a6.107 6.107 0 0 0 8.644 0l14.828-14.865L35.829 28.52l-7.313-7.376-7.363 7.376Z" fill="#00AEE6"></path><path d="m9.47 16.578-7.65 7.576a6.138 6.138 0 0 0 0 8.724l7.65 7.574 12.01-11.91 7.487-7.43L16.911 9.194 9.47 16.578Z" fill="#123962"></path><path d="m40.18 33.06 7.423 7.392 7.587-7.561a6.146 6.146 0 0 0 0-8.71l-3.045-3.036L40.18 33.06ZM35.566 28.5l-7.533-7.391L40.18 9.194 28.033 21.109z" fill="#B1D4E5"></path><path fill="#2754BA" d="m28.967 21.144 7.243 7.413 4.436 4.54 11.682-11.953-4.43-4.54-7.252-7.41z"></path><path d="m40.18 9.322-7.411-7.53a5.982 5.982 0 0 0-8.538 0l-7.411 7.53 11.708 11.823L40.18 9.322Z" fill="#799EB2"></path></g></svg>