<svg xmlns="http://www.w3.org/2000/svg" xmlns:xlink="http://www.w3.org/1999/xlink" width="133px" height="50px" viewBox="0 0 133 50" version="1.1"><!-- Generator: sketchtool 61.2 (101010) - https://sketch.com --><title>2BC27E83-8974-44B6-A2AF-92F14BEC21FC</title><desc>Created with sketchtool.</desc><g id="Page-1" stroke="none" stroke-width="1" fill="none" fill-rule="evenodd"><g id="Genome-Ventures" transform="translate(-693.000000, -3244.000000)" fill="#00ACD7" fill-rule="nonzero"><g id="technologies" transform="translate(123.000000, 3180.000000)"><g id="Group-19" transform="translate(570.000000, 64.000000)"><g id="Go-Logo_Blue"><path d="M10.2538071,14.9473684 C10,14.9473684 9.93654822,14.8421053 10.0634518,14.6842105 L11.3959391,13.2631579 C11.5228426,13.1052632 11.8401015,13 12.0939086,13 L34.7461929,13 C35,13 35.0634518,13.1578947 34.9365482,13.3157895 L33.857868,14.6842105 C33.7309645,14.8421053 33.4137056,15 33.2233503,15 L10.2538071,14.9473684 Z" id="Path"></path><path d="M0.258975717,21 C0,21 -0.0647439292,20.8918919 0.0647439292,20.7297297 L1.42436644,19.2702703 C1.5538543,19.1081081 1.87757395,19 2.13654967,19 L31.6597814,19 C31.9187571,19 32.048245,19.1621622 31.983501,19.3243243 L31.4655496,20.6216216 C31.4008057,20.8378378 31.14183,20.9459459 30.8828542,20.9459459 L0.258975717,21 Z" id="Path"></path><path d="M16.2597403,26.9473684 C16,26.9473684 15.9350649,26.7894737 16.0649351,26.6315789 L16.974026,25.3157895 C17.1038961,25.1578947 17.3636364,25 17.6233766,25 L30.6103896,25 C30.8701299,25 31,25.1578947 31,25.3684211 L30.8701299,26.6315789 C30.8701299,26.8421053 30.6103896,27 30.4155844,27 L16.2597403,26.9473684 Z" id="Path"></path><g id="CXHf1q_3_" transform="translate(35.000000, 0.000000)"><g id="Group"><path d="M47.775,14.2948718 C43.7131579,15.3205128 40.9407895,16.0897436 36.9434211,17.1153846 C35.9763158,17.3717949 35.9118421,17.4358974 35.0736842,16.474359 C34.1065789,15.3846154 33.3973684,14.6794872 32.0434211,14.0384615 C27.9815789,12.0512821 24.0486842,12.6282051 20.3736842,15 C15.9894737,17.8205128 13.7328947,21.9871795 13.7973684,27.1794872 C13.8618421,32.3076923 17.4078947,36.5384615 22.5013158,37.2435897 C26.8855263,37.8205128 30.5605263,36.2820513 33.4618421,33.0128205 C34.0421053,32.3076923 34.5578947,31.5384615 35.2026316,30.6410256 C32.8815789,30.6410256 29.9802632,30.6410256 22.7592105,30.6410256 C21.4052632,30.6410256 21.0828947,29.8076923 21.5342105,28.7179487 C22.3723684,26.7307692 23.9197368,23.3974359 24.8223684,21.7307692 C25.0157895,21.3461538 25.4671053,20.7051282 26.4342105,20.7051282 C29.7223684,20.7051282 41.8434211,20.7051282 49.9026316,20.7051282 C49.7736842,22.4358974 49.7736842,24.1666667 49.5157895,25.8974359 C48.8065789,30.5128205 47.0657895,34.7435897 44.2289474,38.4615385 C39.5868421,44.5512821 33.5263158,48.3333333 25.8539474,49.3589744 C19.5355263,50.1923077 13.6684211,48.974359 8.51052632,45.1282051 C3.73947368,41.5384615 1.03157895,36.7948718 0.322368421,30.8974359 C-0.515789474,23.9102564 1.54736842,17.6282051 5.80263158,12.1153846 C10.3802632,6.15384615 16.4407895,2.37179487 23.8552632,1.02564103 C29.9157895,-0.0641025641 35.7184211,0.641025641 40.9407895,4.16666667 C44.3578947,6.41025641 46.8078947,9.48717949 48.4197368,13.2051282 C48.8065789,13.7820513 48.5486842,14.1025641 47.775,14.2948718 Z" id="Path"></path><path d="M69.1157895,49.7435897 C63.2486842,49.6153846 57.8973684,47.9487179 53.3842105,44.1025641 C49.5802632,40.8333333 47.1947368,36.6666667 46.4210526,31.7307692 C45.2605263,24.4871795 47.2592105,18.0769231 51.6434211,12.3717949 C56.35,6.21794872 62.0236842,3.01282051 69.6960526,1.66666667 C76.2723684,0.512820513 82.4618421,1.15384615 88.0710526,4.93589744 C93.1644737,8.3974359 96.3236842,13.0769231 97.1618421,19.2307692 C98.2578947,27.8846154 95.7434211,34.9358974 89.7473684,40.9615385 C85.4921053,45.2564103 80.2697368,47.9487179 74.2736842,49.1666667 C72.5328947,49.4871795 70.7921053,49.5512821 69.1157895,49.7435897 Z M84.4605263,23.8461538 C84.3960526,23.0128205 84.3960526,22.3717949 84.2671053,21.7307692 C83.1065789,15.3846154 77.2394737,11.7948718 71.1144737,13.2051282 C65.1184211,14.5512821 61.25,18.3333333 59.8315789,24.3589744 C58.6710526,29.3589744 61.1210526,34.4230769 65.7631579,36.474359 C69.3092105,38.0128205 72.8552632,37.8205128 76.2723684,36.0897436 C81.3657895,33.4615385 84.1381579,29.3589744 84.4605263,23.8461538 Z" id="Shape"></path></g></g></g></g></g></g></g></svg> 