<svg xmlns="http://www.w3.org/2000/svg" width="70" height="70"><g fill="none" fill-rule="evenodd"><path fill="#F0DB4F" d="M0 0h70v70H0z"></path><path d="M64.27 53.305c-.511-3.194-2.594-5.875-8.762-8.377-2.143-.985-4.532-1.69-5.244-3.314-.253-.945-.286-1.477-.126-2.05.459-1.856 2.675-2.435 4.431-1.902 1.132.379 2.203 1.25 2.848 2.641 3.021-1.956 3.015-1.943 5.124-3.287-.772-1.197-1.185-1.75-1.69-2.262-1.817-2.03-4.292-3.074-8.251-2.994-.686.086-1.378.18-2.063.266-1.976.499-3.86 1.537-4.964 2.927-3.313 3.76-2.369 10.34 1.664 13.049 3.972 2.981 9.808 3.66 10.553 6.448.725 3.413-2.509 4.518-5.723 4.125-2.368-.492-3.686-1.697-5.11-3.886-2.621 1.517-2.621 1.517-5.316 3.068.639 1.397 1.31 2.03 2.382 3.24 5.07 5.144 17.76 4.89 20.035-2.894.093-.266.705-2.05.213-4.798ZM38.055 32.172h-6.547c0 5.656-.027 11.272-.027 16.928 0 3.6.186 6.9-.4 7.911-.957 1.99-3.44 1.744-4.57 1.358-1.152-.566-1.737-1.371-2.416-2.509-.186-.326-.326-.579-.373-.599-1.776 1.085-3.546 2.176-5.323 3.26.885 1.817 2.19 3.394 3.86 4.419 2.495 1.497 5.848 1.956 9.355 1.151 2.283-.665 4.252-2.043 5.283-4.139 1.49-2.748 1.171-6.075 1.158-9.754.033-6.002 0-12.004 0-18.026Z" fill="#323330" fill-rule="nonzero"></path></g></svg> 