<svg xmlns="http://www.w3.org/2000/svg" xmlns:xlink="http://www.w3.org/1999/xlink" width="56px" height="64px" viewBox="0 0 56 64" version="1.1"><!-- Generator: sketchtool 61.2 (101010) - https://sketch.com --><title>93C3901A-378B-4DAB-8AC5-EF8136DC589A</title><desc>Created with sketchtool.</desc><g id="Page-1" stroke="none" stroke-width="1" fill="none" fill-rule="evenodd"><g id="HS-Project-Managenet-reporting-system" transform="translate(-754.000000, -2053.000000)" fill-rule="nonzero"><g id="Group-25" transform="translate(754.000000, 2053.000000)"><g id="html-5"><polygon id="Path" fill="#E44D26" points="55.8054426 0.710149651 50.7216979 57.6613902 27.8698923 63.9965485 5.08108396 57.6701398 0.00258898279 0.710149651"></polygon><polygon id="Path" fill="#F16529" points="27.9040158 59.1540744 46.3694209 54.0348937 50.7136045 5.36735069 27.9040158 5.36735069"></polygon><path d="M18.0213263,19.3393913 L27.9040158,19.3393913 L27.9040158,12.3534804 L10.3866314,12.3534804 L10.5537491,14.2276478 L12.2708609,33.478987 L27.9040158,33.478987 L27.9040158,26.4930761 L18.6598294,26.4930761 L18.0213263,19.3393913 L18.0213263,19.3393913 Z M19.5958194,36.9720518 L12.5830034,36.9720518 L13.5616478,47.941006 L27.871861,51.9133309 L27.9040158,51.9045813 L27.9040158,44.6362766 L27.8733921,44.64437 L20.093235,42.5435876 L19.5958194,36.9720518 L19.5958194,36.9720518 Z" id="Shape" fill="#EBEBEB"></path><path d="M27.8799544,33.478987 L36.4823565,33.478987 L35.6712673,42.5392128 L27.8797356,44.6421826 L27.8797356,51.9100498 L42.2013233,47.941006 L42.3063187,46.760683 L43.9481838,28.3689934 L44.1185826,26.4930761 L27.8799544,26.4930761 L27.8799544,33.478987 Z M27.8799544,19.3223295 L27.8799544,19.3393913 L44.7542421,19.3393913 L44.8942359,17.769273 L45.2127219,14.2276478 L45.3796208,12.3534804 L27.8799544,12.3534804 L27.8799544,19.3225483 L27.8799544,19.3223295 Z" id="Shape" fill="#FFFFFF"></path></g></g></g></g></svg> 