<svg xmlns="http://www.w3.org/2000/svg" xmlns:xlink="http://www.w3.org/1999/xlink" width="72px" height="64px" viewBox="0 0 72 64" version="1.1"><!-- Generator: sketchtool 61.2 (101010) - https://sketch.com --><title>E51581CB-A578-47E2-88A7-D495A92092C9</title><desc>Created with sketchtool.</desc><g id="cases-web" stroke="none" stroke-width="1" fill="none" fill-rule="evenodd"><g id="CONFIGURATION-EDITOR-" transform="translate(-561.000000, -4199.000000)" fill="#61DAFB" fill-rule="nonzero"><g id="Group-3" transform="translate(561.000000, 4199.000000)"><g id="react-2"><path d="M71.8650711,32.0048603 C71.8650711,27.2444119 65.9035251,22.7329717 56.7634643,19.9352928 C58.8727091,10.6194616 57.9352669,3.20780979 53.8046626,0.834909398 C52.8525729,0.278303133 51.7393604,0.0146475333 50.5236151,0.0146475333 L50.5236151,3.28104746 C51.1974016,3.28104746 51.7393604,3.41287526 52.1934339,3.66188332 C54.1854984,4.80439092 55.0497029,9.15470831 54.3759164,14.750066 C54.2147935,16.1269342 53.9511379,17.57704 53.6288922,19.0564408 C50.7579756,18.3533592 47.6234035,17.8114005 44.3277085,17.4598597 C42.3502915,14.750066 40.2996369,12.2892804 38.2343347,10.136093 C43.0094305,5.69789045 47.4915757,3.26639993 50.5382626,3.26639993 L50.5382626,-3.72362212e-15 C46.510191,-3.72362212e-15 41.237079,2.87091653 35.9053769,7.85107785 C30.5736747,2.90021159 25.3005628,0.0585901332 21.2724911,0.0585901332 L21.2724911,3.32499006 C24.3045305,3.32499006 28.8013232,5.74183305 33.5764191,10.1507406 C31.5257644,12.303928 29.4751098,14.750066 27.5269878,17.4598597 C24.2166453,17.8114005 21.0820732,18.3533592 18.2111566,19.0710884 C17.8742634,17.606335 17.6252553,16.1855243 17.4494849,14.8233037 C16.7610508,9.22794598 17.6106078,4.87762859 19.5880248,3.72047346 C20.0274508,3.45681786 20.5987046,3.33963759 21.2724911,3.33963759 L21.2724911,0.0732376665 C20.0420983,0.0732376665 18.9288858,0.336893266 17.9621486,0.893499531 C13.8461917,3.26639993 12.9233971,10.6634042 15.0472895,19.9499404 C5.93652374,22.7622667 0.00427275356,27.2590595 0.00427275356,32.0048603 C0.00427275356,36.7653086 5.96581881,41.2767488 15.1058796,44.0744277 C12.9966348,53.3902589 13.9340769,60.8019107 18.0646813,63.1748111 C19.016771,63.7314174 20.1299835,63.995073 21.3603763,63.995073 C25.388448,63.995073 30.6615599,61.1241565 35.9932621,56.1439951 C41.3249642,61.0948614 46.5980762,63.9364828 50.6261478,63.9364828 C51.8565406,63.9364828 52.9697532,63.6728272 53.9364904,63.116221 C58.0524472,60.7433206 58.9752418,53.3463163 56.8513495,44.0597802 C65.9328201,41.2621013 71.8650711,36.750661 71.8650711,32.0048603 L71.8650711,32.0048603 Z M52.7939828,22.2349555 C52.252024,24.1244873 51.5782375,26.0726093 50.8165658,28.0207312 C50.2160169,26.8489285 49.586173,25.6771259 48.8977389,24.5053232 C48.2239524,23.3335205 47.5062232,22.1910129 46.7884941,21.0778004 C48.8684438,21.3853986 50.8751559,21.7662345 52.7939828,22.2349555 Z M46.0854125,37.8345785 C44.9429049,39.8119955 43.7711022,41.6868798 42.555357,43.4299362 C40.3728745,43.6203542 38.161097,43.7228869 35.9346719,43.7228869 C33.7228944,43.7228869 31.5111169,43.6203542 29.343282,43.4445838 C28.1275367,41.7015273 26.9410865,39.8412906 25.7985789,37.8785211 C24.6853664,35.9596942 23.6746866,34.0115723 22.751892,32.0488029 C23.660039,30.0860334 24.6853664,28.1232639 25.7839314,26.2044371 C26.926439,24.2270201 28.0982416,22.3521358 29.3139869,20.6090794 C31.4964693,20.4186614 33.7082469,20.3161287 35.9346719,20.3161287 C38.1464495,20.3161287 40.358227,20.4186614 42.5260619,20.5944318 C43.7418072,22.3374883 44.9282574,24.197725 46.070765,26.1604945 C47.1839775,28.0793213 48.1946573,30.0274433 49.1174519,31.9902127 C48.1946573,33.9529822 47.1839775,35.9157516 46.0854125,37.8345785 Z M50.8165658,35.9303992 C51.6075326,37.8931686 52.2813191,39.8559381 52.8379254,41.7601174 C50.9190985,42.2288385 48.8977389,42.6243219 46.8031416,42.9319201 C47.5208708,41.80406 48.2385999,40.6469049 48.9123864,39.4604547 C49.586173,38.288652 50.2160169,37.1022018 50.8165658,35.9303992 Z M35.963967,51.5593172 C34.6017464,50.153154 33.2395258,48.585868 31.8919527,46.8721066 C33.2102307,46.9306967 34.5578038,46.9746393 35.9200244,46.9746393 C37.2968925,46.9746393 38.6591131,46.9453442 39.9920387,46.8721066 C38.6737607,48.585868 37.3115401,50.153154 35.963967,51.5593172 Z M25.0662022,42.9319201 C22.9862525,42.6243219 20.9795404,42.243486 19.0607136,41.774765 C19.6026723,39.8852332 20.2764588,37.9371112 21.0381306,35.9889893 C21.6386794,37.160792 22.2685234,38.3325946 22.9569574,39.5043973 C23.6453915,40.6762 24.3484731,41.8187076 25.0662022,42.9319201 Z M35.8907293,12.4504033 C37.2529499,13.8565665 38.6151705,15.4238526 39.9627436,17.137614 C38.6444656,17.0790238 37.2968925,17.0350812 35.9346719,17.0350812 C34.5578038,17.0350812 33.1955832,17.0643763 31.8626577,17.137614 C33.1809357,15.4238526 34.5431563,13.8565665 35.8907293,12.4504033 Z M25.0515547,21.0778004 C24.3338256,22.2056605 23.6160964,23.3628156 22.9423099,24.5492658 C22.2685234,25.7210685 21.6386794,26.8928711 21.0381306,28.0646738 C20.2471638,26.1019043 19.5733772,24.1391349 19.016771,22.2349555 C20.9355978,21.780882 22.9569574,21.3853986 25.0515547,21.0778004 Z M11.7955371,39.4165121 C6.61031027,37.2047346 3.25602515,34.304523 3.25602515,32.0048603 C3.25602515,29.7051975 6.61031027,26.7903384 11.7955371,24.5932084 C13.0552249,24.0512497 14.4320931,23.5678811 15.8529038,23.1138075 C16.6878132,25.9847241 17.7863782,28.9728209 19.1485988,32.0341553 C17.8010257,35.0808422 16.7171082,38.0542915 15.8968464,40.9105605 C14.4467406,40.456487 13.0698725,39.9584708 11.7955371,39.4165121 Z M19.67591,60.3478372 C17.6838454,59.2053296 16.819641,54.8550122 17.4934275,49.2596545 C17.6545504,47.8827864 17.918206,46.4326806 18.2404517,44.9532797 C21.1113682,45.6563613 24.2459404,46.19832 27.5416354,46.5498608 C29.5190523,49.2596545 31.569707,51.7204401 33.6350092,53.8736275 C28.8599134,58.3118301 24.3777682,60.7433206 21.3310812,60.7433206 C20.6719422,60.7286731 20.115336,60.5968453 19.67591,60.3478372 L19.67591,60.3478372 Z M54.419859,49.1864168 C55.108293,54.7817745 54.2587361,59.1320919 52.2813191,60.2892471 C51.8418931,60.5529027 51.2706393,60.6700829 50.5968528,60.6700829 C47.5648134,60.6700829 43.0680207,58.2532399 38.2929248,53.8443324 C40.3435795,51.691145 42.3942341,49.2450069 44.342356,46.5352133 C47.6526986,46.1836725 50.7872707,45.6417138 53.6581872,44.9239846 C53.9950805,46.4033855 54.2587361,47.8241962 54.419859,49.1864168 L54.419859,49.1864168 Z M60.0591593,39.4165121 C58.7994714,39.9584708 57.4226033,40.4418394 56.0017926,40.895913 C55.1668832,38.0249964 54.0683182,35.0368996 52.7060976,31.9755652 C54.0536706,28.9288783 55.1375881,25.955429 55.95785,23.09916 C57.4079558,23.5532335 58.7848239,24.0512497 60.0738068,24.5932084 C65.2590336,26.8049859 68.6133187,29.7051975 68.6133187,32.0048603 C68.5986712,34.304523 65.2443861,37.2193821 60.0591593,39.4165121 L60.0591593,39.4165121 Z" id="Shape"></path><circle id="Oval" cx="35.9200244" cy="32.0048603" r="6.69392272"></circle></g></g></g></g></svg> 