<svg xmlns="http://www.w3.org/2000/svg" xmlns:xlink="http://www.w3.org/1999/xlink" width="59px" height="65px" viewBox="0 0 59 65" version="1.1"><!-- Generator: sketchtool 61.2 (101010) - https://sketch.com --><title>BD44D7EE-A536-4239-B522-91475A7F94F7</title><desc>Created with sketchtool.</desc><g id="Page-1" stroke="none" stroke-width="1" fill="none" fill-rule="evenodd"><g id="Enterprise-Video-Solution" transform="translate(-522.000000, -3895.000000)" fill="#8CC84B" fill-rule="nonzero"><g id="Group-3" transform="translate(522.000000, 3895.125000)"><g id="nodejs-icon"><path d="M26.8018973,0.682789855 C28.4118492,-0.225544018 30.5088103,-0.229646907 32.1173747,0.682789855 C40.2099151,5.19004055 48.3049992,9.69022515 56.3961521,14.2002111 C57.9179983,15.0451781 58.9359541,16.7145978 58.9206349,18.4430534 L58.9206349,45.5604096 C58.9317917,47.3604378 57.8132428,49.0697467 56.2076846,49.8955669 C48.1417378,54.3779723 40.0799535,58.8658483 32.0153942,63.3482537 C30.3721425,64.2743667 28.2330941,64.2030221 26.6411796,63.2010056 C24.2230143,61.819244 21.8006865,60.4443205 19.38229,59.0639266 C18.888112,58.7735333 18.3310344,58.5424039 17.9820805,58.0701159 C18.2905659,57.6602829 18.8420935,57.6092248 19.2902531,57.4302932 C20.2996527,57.113915 21.2267278,56.6060686 22.1540342,56.1132661 C22.3885201,55.955077 22.6748058,56.0157085 22.8995793,56.1572582 C24.9674031,57.3258975 27.0169584,58.5284997 29.0917197,59.68597 C29.5343293,59.9378418 29.9824888,59.6034564 30.3608113,59.3955767 C38.2759841,54.9861115 46.2008694,50.5932858 54.1146547,46.182453 C54.4078777,46.0434107 54.5699829,45.7366058 54.5461643,45.4199996 C54.5517143,36.4745635 54.5475518,27.5275319 54.5489393,18.5820958 C54.5824703,18.2228651 54.3715717,17.8925826 54.0420427,17.7455624 C46.0040769,13.2836715 37.9702736,8.81494232 29.9336954,4.35191165 C29.6486892,4.15877799 29.2725434,4.15823461 28.9869641,4.35054402 C20.9503859,8.81494232 12.9179701,13.2877743 4.88139185,17.7494374 C4.55301901,17.8966855 4.33263922,18.2214975 4.37172021,18.5820958 C4.3731077,27.5275319 4.37172021,36.4745635 4.37172021,45.4213672 C4.34317876,45.7377591 4.51758505,46.0381918 4.80877983,46.1742472 C6.95337818,47.3729744 9.10075152,48.5632679 11.2467374,49.7578922 C12.4557044,50.3993104 13.9400884,50.7804231 15.2720796,50.2889883 C16.4475156,49.8734569 17.2714539,48.6911413 17.2490228,47.4609586 C17.2601227,38.5677203 17.2434728,29.6731145 17.2573477,20.7812439 C17.2279792,20.3864548 17.6079204,20.0602752 17.9973429,20.0974292 C19.0277861,20.090591 20.0596168,20.0837529 21.09006,20.1001644 C21.5201821,20.090591 21.8161802,20.5156958 21.762993,20.913448 C21.7588305,29.862987 21.7740929,38.812754 21.7560556,47.7622929 C21.7588305,50.1474386 20.7646934,52.7427434 18.5264394,53.9097872 C15.7690325,55.3177617 12.3608925,55.0191626 9.63678549,53.6690844 C7.27851354,52.5088788 5.02800338,51.1396538 2.71158741,49.8967066 C1.10186677,49.0754451 -0.0111321396,47.3592981 0,45.5606375 L0,18.4430534 C-0.016682103,16.6788115 1.04174217,14.9790761 2.61099432,14.1464177 C10.6755536,9.66036524 18.7387255,5.17089373 26.8018973,0.682789855 Z" id="Path"></path><path d="M33.2536598,20.4038667 C36.8220682,20.1857233 40.6422125,20.2746295 43.8533108,21.9442399 C46.3394662,23.2236878 47.7177962,25.9089239 47.7616682,28.5322154 C47.6922238,28.8860578 47.3027722,29.0812505 46.9471045,29.0569628 C45.9117733,29.0556259 44.8762076,29.0703322 43.8408765,29.0502781 C43.4016878,29.0663214 43.1464328,28.6817294 43.0912996,28.3129579 C42.7938149,27.0577977 42.073095,25.8146699 40.8291961,25.2092607 C38.9197105,24.3012583 36.705702,24.3469369 34.6235439,24.3658768 C33.1035098,24.4425278 31.4689864,24.5675314 30.1812156,25.4164858 C29.1925718,26.0595521 28.8922718,27.357717 29.2451243,28.403201 C29.5778003,29.1538907 30.4901961,29.3960989 31.2367231,29.6193673 C35.5371127,30.6875792 40.094165,30.5812928 44.3124413,31.9870811 C46.0588734,32.560181 47.7672988,33.6742945 48.3650794,35.4109745 C49.1470364,37.7385802 48.8042722,40.5207442 47.0606554,42.3893353 C45.6466648,43.9270346 43.5872638,44.7639566 41.5332588,45.2185149 C38.8007636,45.7971854 35.9650402,45.8118917 33.1900807,45.5549771 C30.5807554,45.272438 27.8653866,44.6213501 25.8510306,42.9327998 C24.1285287,41.5123052 23.2872195,39.2990075 23.3707404,37.1628064 C23.3906822,36.8020565 23.7688725,36.5504897 24.1327516,36.5801251 C25.1753557,36.5721035 26.2179597,36.5694296 27.2605637,36.581462 C27.6769953,36.5531635 27.9857412,36.8949735 28.0070907,37.2677559 C28.1994703,38.4636452 28.6726774,39.7188054 29.7706492,40.4278272 C31.889641,41.726215 34.5484689,41.6373087 36.9747989,41.6736288 C38.9849319,41.5889562 41.2414048,41.5633316 42.8817934,40.3014867 C43.7472674,39.5817694 44.0036954,38.3776357 43.7697899,37.341733 C43.5164117,36.467154 42.5531057,36.0596113 41.7258731,35.7931154 C37.4806167,34.5176783 32.8726542,34.980481 28.6684544,33.5381498 C26.9616713,32.9652727 25.3111945,31.8821316 24.6554613,30.2167549 C23.7404848,27.8597365 24.1597317,24.9443245 26.0861092,23.1387923 C27.9643917,21.3428415 30.6757721,20.6511999 33.2536598,20.4036439 L33.2536598,20.4038667 Z" id="Path"></path></g></g></g></g></svg> 