<svg xmlns="http://www.w3.org/2000/svg" xmlns:xlink="http://www.w3.org/1999/xlink" width="96px" height="50px" viewBox="0 0 96 50" version="1.1"><!-- Generator: sketchtool 61.2 (101010) - https://sketch.com --><title>6FC0F10E-F64B-4F77-BEC6-D7E03E3F0BA0</title><desc>Created with sketchtool.</desc><g id="Page-1" stroke="none" stroke-width="1" fill="none" fill-rule="evenodd"><g id="WEBSITE-DEVELOPMENT-" transform="translate(-1048.000000, -4271.000000)" fill-rule="nonzero"><g id="Group-18" transform="translate(1048.000000, 4271.000000)"><g id="php-1"><ellipse id="Oval" fill="#8993BE" cx="48.0030722" cy="24.9878492" rx="48.0030722" ry="24.9878492"></ellipse><path d="M30.905728,13.1513417 C36.1661896,13.4802377 38.796608,16.1102811 38.796608,20.7137007 C38.796608,28.6045807 32.5498332,33.2076253 26.9601004,32.8787292 L21.0425967,32.8787292 L19.7273876,39.7832961 L13.4802377,39.7832961 L18.7410744,13.1513417 L30.905728,13.1513417 Z M28.2756846,18.0832823 L24.0015361,18.0832823 L22.3578059,27.9471636 L26.3030584,27.9471636 C29.2619978,27.6182676 31.8924161,26.6319544 32.2209371,21.0422217 C32.2209371,19.0695955 30.5772069,18.0832823 28.2756846,18.0832823 L28.2756846,18.0832823 Z M74.9635477,13.1513417 C80.2243844,13.4802377 82.8548027,16.1102811 82.8548027,20.7137007 C82.8548027,28.6045807 76.6076529,33.2076253 71.0182952,32.8787292 L65.1000414,32.8787292 L63.7848322,39.7832961 L57.5380574,39.7832961 L62.7985191,13.1513417 L74.9635477,13.1513417 Z M49.0820162,6.24714982 L47.7668071,13.1513417 L53.6846858,13.1513417 C58.9455225,13.4802377 60.9181488,16.1102811 60.2607317,19.3984915 L57.9592094,32.8787292 L51.3835385,32.8787292 L53.6850608,20.7137007 C54.0135819,19.0695955 54.0135819,18.0832823 51.7124346,18.0832823 L46.780494,18.0832823 L43.8215546,32.8787292 L37.5744048,32.8787292 L42.8348664,6.24714982 L49.0820162,6.24714982 Z M72.3335043,18.0832823 L68.0589808,18.0832823 L66.4148756,27.9471636 L70.3608781,27.9471636 C73.3198175,27.6182676 75.9502358,26.6319544 76.2787568,21.0422217 C76.2787568,19.0695955 74.6350266,18.0832823 72.3335043,18.0832823 L72.3335043,18.0832823 Z" id="Shape" fill="#232531"></path></g></g></g></g></svg> 