<svg version="1.2" baseProfile="tiny-ps" xmlns="http://www.w3.org/2000/svg" viewBox="0 0 960 540" width="960" height="540">
	<title>background-svg</title>
	<defs>
		<clipPath clipPathUnits="userSpaceOnUse" id="cp1">
			<path d="M0 0L960 0L960 540L0 540L0 0Z" />
		</clipPath>
	</defs>
	<style>
		tspan { white-space:pre }
		.shp0 { fill: #373333 } 
		.shp1 { fill: #99cc00 } 
		.shp2 { fill: #809cd1 } 
		.shp3 { fill: #ec1c24 } 
		.shp4 { fill: none } 
		.shp5 { fill: none;stroke: #cccccc;stroke-linejoin:round } 
		.shp6 { fill: none;stroke: #d9d9d9;stroke-linejoin:round } 
	</style>
	<g id="Clip-Path" clip-path="url(#cp1)">
		<g id="Layer">
			<path id="Layer" fill-rule="evenodd" class="shp0" d="M0 0L960 0L960 540L0 540L0 0Z" />
			<path id="Layer" fill-rule="evenodd" class="shp1" d="M23.85 146.75L0 147.21L0 48L42.2 48L23.85 146.75Z" />
			<path id="Layer" fill-rule="evenodd" class="shp1" d="M936.15 364.04L960 363.58L960 462.8L917.8 462.8L936.15 364.04Z" />
			<path id="Layer" fill-rule="evenodd" class="shp2" d="M820.03 511.9L821.99 502.44L824.14 501.75L821.99 511.9L820.03 511.9ZM824.71 498.07C824.88 498.28 824.99 498.54 824.99 498.84C824.99 499.25 824.83 499.6 824.5 499.93C824.19 500.26 823.84 500.43 823.41 500.43C823.12 500.43 822.84 500.33 822.65 500.12C822.44 499.93 822.35 499.67 822.35 499.38C822.35 498.96 822.53 498.61 822.84 498.28C823.17 497.95 823.53 497.8 823.93 497.8C824.26 497.8 824.5 497.9 824.71 498.07Z" />
			<path id="Layer" fill-rule="evenodd" class="shp2" d="M829.84 511.9L831.18 505.32C831.21 505.15 831.23 504.98 831.23 504.8C831.23 503.83 830.69 503.38 829.62 503.4C828.99 503.43 828.34 503.64 827.62 504.01L826.01 511.9L824.03 511.9L825.79 503.59C826.9 502.88 827.85 502.41 828.61 502.18C829.34 502.01 829.98 501.91 830.56 501.91C830.94 501.91 831.28 501.96 831.61 502.03C832.81 502.29 833.4 502.98 833.4 504.04C833.4 504.21 833.38 504.4 833.36 504.58L831.8 511.9L829.84 511.9" />
			<path id="Layer" fill-rule="evenodd" class="shp2" d="M836.59 512.19C835.5 512.19 834.49 511.77 833.62 510.94L834.66 509.68C835.29 510.3 836.03 510.61 836.92 510.61C837.44 510.61 837.91 510.47 838.34 510.27C838.76 510.01 839.02 509.64 839.1 509.21C839.16 508.86 839.07 508.58 838.81 508.38C838.69 508.27 838.41 508.15 837.99 507.98C837.84 507.87 837.56 507.77 837.21 507.59C836.49 507.28 836.02 507.04 835.77 506.85C835.32 506.47 835.1 506.02 835.1 505.46C835.1 505.27 835.12 505.08 835.17 504.86C835.36 503.92 835.86 503.16 836.69 502.58C837.44 502.08 838.29 501.84 839.21 501.84C840.06 501.84 840.96 502.17 841.93 502.79L840.87 504.11C840.18 503.64 839.5 503.4 838.91 503.4C838.46 503.4 838.06 503.54 837.72 503.75C837.37 503.95 837.14 504.27 837.06 504.65C836.99 505.01 837.16 505.27 837.54 505.48C837.77 505.62 838.25 505.84 839.03 506.17C839.76 506.47 840.25 506.75 840.56 507.01C840.92 507.39 841.13 507.84 841.13 508.41C841.13 508.6 841.13 508.84 841.08 509.03C840.86 510.06 840.25 510.84 839.31 511.43C838.48 511.93 837.6 512.19 836.59 512.19L836.59 512.19Z" />
			<path id="Layer" fill-rule="evenodd" class="shp2" d="M843.02 509.47L844.27 503.59L843.25 503.59L843.54 502.13L844.58 502.13L845.1 499.57L847.24 498.86L846.53 502.13L848.17 502.13L847.86 503.59L846.23 503.59L844.98 509.45C844.93 509.62 844.91 509.78 844.91 509.9C844.91 510.23 845.03 510.46 845.26 510.56C845.49 510.68 845.87 510.77 846.39 510.79L846.11 512.03L845.54 512.03C843.82 512.03 842.97 511.39 842.97 510.11C842.97 509.9 842.97 509.69 843.02 509.47" />
			<path id="Layer" fill-rule="evenodd" class="shp2" d="M848.26 511.9L850.22 502.44L852.37 501.75L850.22 511.9L848.26 511.9ZM852.91 498.07C853.12 498.28 853.22 498.54 853.22 498.84C853.22 499.25 853.05 499.6 852.73 499.93C852.42 500.26 852.04 500.43 851.64 500.43C851.33 500.43 851.07 500.33 850.88 500.12C850.67 499.93 850.57 499.67 850.57 499.38C850.57 498.96 850.76 498.61 851.07 498.28C851.4 497.95 851.76 497.8 852.16 497.8C852.49 497.8 852.73 497.9 852.91 498.07Z" />
			<path id="Layer" fill-rule="evenodd" class="shp2" d="M858.08 511.9L859.38 505.32C859.41 505.15 859.44 504.98 859.44 504.8C859.44 503.83 858.89 503.38 857.82 503.4C857.23 503.43 856.55 503.64 855.86 504.01L854.23 511.9L852.25 511.9L854.02 503.59C855.13 502.88 856.08 502.41 856.84 502.18C857.57 502.01 858.21 501.91 858.77 501.91C859.15 501.91 859.5 501.96 859.81 502.03C861.02 502.29 861.61 502.98 861.61 504.04C861.61 504.21 861.6 504.4 861.54 504.58L860.02 511.9L858.08 511.9L858.08 511.9Z" />
			<path id="Layer" fill-rule="evenodd" class="shp2" d="M865.27 512.1C864.28 512.1 863.54 511.72 862.98 510.99C862.51 510.3 862.25 509.47 862.25 508.43C862.25 507.32 862.57 506.23 863.14 505.12C863.73 504.01 864.49 503.17 865.43 502.58C866.14 502.13 866.92 501.91 867.79 501.91C868.76 501.91 869.62 502.22 870.42 502.79L869.54 503.99C868.74 503.55 868.01 503.38 867.37 503.4C866.52 503.49 865.77 504.06 865.12 505.18C864.54 506.17 864.25 507.13 864.25 508.1C864.25 508.81 864.4 509.36 864.68 509.81C864.99 510.3 865.45 510.56 866.05 510.56C866.64 510.58 867.6 510.3 868.81 509.78L869.14 510.99C867.79 511.72 866.52 512.1 865.27 512.1L865.27 512.1Z" />
			<path id="Layer" fill-rule="evenodd" class="shp2" d="M871.24 509.47L872.49 503.59L871.46 503.59L871.77 502.13L872.81 502.13L873.34 499.57L875.45 498.86L874.76 502.13L876.39 502.13L876.07 503.59L874.46 503.59L873.21 509.45C873.16 509.62 873.16 509.78 873.16 509.9C873.16 510.23 873.27 510.46 873.49 510.56C873.72 510.68 874.08 510.77 874.6 510.79L874.36 512.03L873.75 512.03C872.03 512.03 871.18 511.39 871.18 510.11C871.18 509.9 871.18 509.69 871.24 509.47" />
			<path id="Layer" fill-rule="evenodd" class="shp2" d="M879.99 512.05C878.85 512.03 877.95 511.65 877.36 510.92C876.8 510.27 876.53 509.36 876.53 508.25C876.53 507.77 876.58 507.28 876.68 506.83C876.98 505.48 877.6 504.35 878.57 503.38C879.63 502.39 880.81 501.89 882.16 501.91C883.27 501.91 884.16 502.27 884.78 502.98C885.35 503.66 885.65 504.53 885.65 505.58C885.65 507.21 885.09 508.69 884.05 509.97C882.91 511.38 881.55 512.05 879.99 512.05ZM878.8 506.85C878.68 507.39 878.62 507.87 878.62 508.32C878.62 509.87 879.2 510.63 880.34 510.63C881.87 510.61 882.91 509.35 883.44 506.88C883.55 506.45 883.6 506.03 883.6 505.69C883.6 504.27 883.01 503.54 881.83 503.49C880.27 503.59 879.27 504.7 878.8 506.85Z" />
			<path id="Layer" fill-rule="evenodd" class="shp2" d="M890.17 512.05C889.01 512.03 888.13 511.65 887.5 510.92C886.98 510.27 886.72 509.36 886.72 508.25C886.72 507.77 886.76 507.28 886.86 506.83C887.14 505.48 887.78 504.35 888.75 503.38C889.81 502.39 891.01 501.89 892.34 501.91C893.47 501.91 894.32 502.27 894.94 502.98C895.53 503.66 895.81 504.53 895.81 505.58C895.81 507.21 895.29 508.69 894.21 509.97C893.1 511.38 891.75 512.05 890.17 512.05C890.17 512.05 890.17 512.05 890.17 512.05ZM888.96 506.85C888.86 507.39 888.8 507.87 888.8 508.32C888.8 509.87 889.38 510.63 890.5 510.63C892.05 510.61 893.1 509.35 893.62 506.88C893.73 506.45 893.76 506.03 893.76 505.69C893.76 504.27 893.19 503.54 891.99 503.49C890.45 503.59 889.43 504.7 888.96 506.85Z" />
			<path id="Layer" fill-rule="evenodd" class="shp2" d="M896.78 509.42L899.35 497.12L901.36 496.51L898.67 509.45C898.65 509.62 898.65 509.78 898.65 509.9C898.65 510.21 898.74 510.44 899 510.56C899.19 510.68 899.54 510.73 900.04 510.77L899.76 512L899.17 512C897.53 512 896.69 511.38 896.69 510.11C896.69 509.87 896.73 509.68 896.78 509.42" />
			<path id="Layer" fill-rule="evenodd" class="shp2" d="M904.24 512.19C903.13 512.19 902.14 511.77 901.27 510.94L902.35 509.68C902.95 510.3 903.68 510.61 904.55 510.61C905.07 510.61 905.55 510.47 905.97 510.27C906.4 510.01 906.65 509.64 906.75 509.21C906.8 508.86 906.7 508.58 906.46 508.38C906.32 508.27 906.06 508.15 905.66 507.98C905.47 507.87 905.21 507.77 904.84 507.59C904.15 507.28 903.66 507.04 903.4 506.85C902.95 506.47 902.76 506.02 902.76 505.46C902.76 505.27 902.78 505.08 902.81 504.86C903.01 503.92 903.53 503.16 904.36 502.58C905.1 502.08 905.92 501.84 906.85 501.84C907.7 501.84 908.59 502.17 909.58 502.79L908.52 504.11C907.83 503.64 907.17 503.4 906.54 503.4C906.13 503.4 905.73 503.54 905.35 503.75C905 503.95 904.77 504.27 904.7 504.65C904.64 505.01 904.81 505.27 905.21 505.48C905.4 505.62 905.9 505.84 906.68 506.17C907.39 506.47 907.9 506.75 908.19 507.01C908.59 507.39 908.8 507.84 908.8 508.41C908.8 508.6 908.76 508.84 908.73 509.03C908.5 510.06 907.9 510.84 906.94 511.43C906.13 511.93 905.22 512.19 904.24 512.19L904.24 512.19Z" />
			<path id="Layer" fill-rule="evenodd" class="shp3" d="M815.45 498.91L819.47 501.28L817.64 504.4L813.7 502.08L813.7 506.64L810.08 506.64L810.08 502.08L806.14 504.4L804.3 501.28L808.32 498.91L804.3 496.55L806.14 493.43L810.08 495.75L810.08 491.17L813.7 491.17L813.7 495.75L817.64 493.43L819.47 496.55L815.45 498.91Z" />
			<path id="Layer" class="shp4" d="M15.74 540.88L47.2 396.75" />
			<path id="Layer" class="shp5" d="M15.74 540.88L47.2 396.75" />
			<path id="Layer" class="shp4" d="M904.5 48.04L914.46 0.01" />
			<path id="Layer" class="shp6" d="M904.5 48.04L914.46 0.01" />
			<path id="Layer" class="shp4" d="M607.98 540.88L618.75 492.85" />
			<path id="Layer" class="shp6" d="M607.98 540.88L618.75 492.85" />
		</g>
	</g>
</svg>