<svg version="1.1" viewBox="0.0 0.0 960.0 540.0" fill="none" stroke="none" stroke-linecap="square" stroke-miterlimit="10" xmlns:xlink="http://www.w3.org/1999/xlink" xmlns="http://www.w3.org/2000/svg"><clipPath id="g1525727b632_0_0.0"><path d="m0 0l960.0 0l0 540.0l-960.0 0l0 -540.0z" clip-rule="nonzero"/></clipPath><g clip-path="url(#g1525727b632_0_0.0)"><path fill="#ffffff" d="m0 0l960.0 0l0 540.0l-960.0 0z" fill-rule="evenodd"/><path fill="#99cc00" d="m23.848 146.75496l-23.848 0.45806885l0 -99.21303l42.19918 0z" fill-rule="evenodd"/><path fill="#99cc00" d="m936.15173 364.04074l23.847961 -0.45806885l0 99.21304l-42.199158 0z" fill-rule="evenodd"/><path fill="#809cd1" d="m820.0295 511.89557l1.9592896 -9.451019l2.1505127 -0.6933899l-2.1505127 10.144409zm3.9015503 -14.098114c0.3295288 0 0.57214355 0.10391235 0.7803345 0.27734375c0.17346191 0.20822144 0.27734375 0.46820068 0.27734375 0.76293945c0 0.41641235 -0.1560669 0.76330566 -0.48553467 1.0924377c-0.3121338 0.3294983 -0.6590576 0.5029602 -1.0924683 0.5029602c-0.29473877 0 -0.5720825 -0.10394287 -0.76293945 -0.3121338c-0.20819092 -0.19082642 -0.29473877 -0.45080566 -0.29473877 -0.74554443c0 -0.41604614 0.17346191 -0.76293945 0.4855957 -1.0924377c0.32946777 -0.3295288 0.6934204 -0.4855652 1.0924072 -0.4855652z" fill-rule="evenodd"/><path fill="#809cd1" d="m829.8444 511.89557l1.335022 -6.572357c0.03479004 -0.17346191 0.052124023 -0.3468933 0.052124023 -0.5199585c0 -0.9711609 -0.5376587 -1.4219666 -1.6127319 -1.4049377c-0.6242676 0.03475952 -1.2832642 0.24295044 -1.9940796 0.60723877l-1.6127319 7.8900146l-1.9770508 0l1.7514648 -8.306427c1.1098022 -0.7107849 2.0635376 -1.1789856 2.826477 -1.4045715c0.72857666 -0.1734314 1.3701782 -0.27737427 1.9422607 -0.27737427c0.38165283 0 0.72821045 0.05215454 1.0576782 0.12130737c1.1967163 0.25997925 1.7862549 0.95376587 1.7862549 2.011444c0 0.1734314 -0.01739502 0.3642578 -0.03479004 0.5377197l-1.5606079 7.3179016l-1.9592896 0" fill-rule="evenodd"/><path fill="#809cd1" d="m836.58984 512.1903c-1.0924072 0 -2.0983276 -0.41641235 -2.965149 -1.2484741l1.0402832 -1.2658997c0.6242676 0.6242676 1.369812 0.93637085 2.2543945 0.93637085c0.5203247 0 0.9885254 -0.13867188 1.421936 -0.3468628c0.41607666 -0.26000977 0.6763916 -0.6242676 0.76293945 -1.0576782c0.052124023 -0.3468933 -0.03479004 -0.6242676 -0.29473877 -0.8324585c-0.12133789 -0.10391235 -0.39904785 -0.22558594 -0.8150635 -0.39904785c-0.1560669 -0.10391235 -0.43347168 -0.2078247 -0.7803345 -0.38128662c-0.7281494 -0.31210327 -1.1963501 -0.5550842 -1.439331 -0.74554443c-0.45080566 -0.38165283 -0.6763916 -0.8324585 -0.6763916 -1.3875427c0 -0.1904602 0.01739502 -0.38128662 0.06951904 -0.60687256c0.19085693 -0.93637085 0.6937866 -1.6993103 1.5258789 -2.2713928c0.74591064 -0.5029602 1.595398 -0.74594116 2.5144043 -0.74594116c0.8497925 0 1.7514038 0.3294983 2.7225342 0.95376587l-1.0576782 1.3180237c-0.6937256 -0.46820068 -1.3701172 -0.7111511 -1.9596558 -0.7111511c-0.45080566 0 -0.84942627 0.13903809 -1.1963501 0.3468933c-0.3468628 0.20819092 -0.57244873 0.5203247 -0.6589966 0.90197754c-0.06951904 0.3638916 0.10394287 0.62423706 0.4855957 0.8320923c0.22521973 0.13867188 0.7107544 0.3642578 1.4910889 0.6937561c0.7285156 0.29473877 1.2141113 0.57211304 1.5262451 0.8324585c0.3638916 0.38128662 0.5720825 0.8320923 0.5720825 1.4045715c0 0.1904602 0 0.43341064 -0.051757812 0.62423706c-0.22558594 1.0229187 -0.8324585 1.8032227 -1.7688599 2.3927307c-0.8324585 0.5029297 -1.7166748 0.76327515 -2.7225952 0.76327515z" fill-rule="evenodd"/><path fill="#809cd1" d="m843.0232 509.46774l1.2484741 -5.878601l-1.0228882 0l0.29473877 -1.4567261l1.0402832 0l0.5203247 -2.5661316l2.1331177 -0.71118164l-0.71118164 3.2773132l1.647583 0l-0.3121338 1.4567261l-1.630188 0l-1.2484741 5.861206c-0.052124023 0.17346191 -0.06951904 0.3294983 -0.06951904 0.45080566c0 0.3294983 0.12164307 0.5550842 0.3468628 0.6590271c0.22558594 0.121276855 0.60687256 0.20819092 1.1271973 0.22558594l-0.27734375 1.2484741l-0.57244873 0c-1.7167358 0 -2.566162 -0.64160156 -2.566162 -1.9248657c0 -0.20822144 0 -0.41604614 0.051757812 -0.6416321" fill-rule="evenodd"/><path fill="#809cd1" d="m848.26013 511.89557l1.9596558 -9.451019l2.1501465 -0.6933899l-2.1501465 10.144409zm3.9016113 -14.098114c0.32946777 0 0.57244873 0.10391235 0.74591064 0.27734375c0.2078247 0.20822144 0.3121338 0.46820068 0.3121338 0.76293945c0 0.41641235 -0.17346191 0.76330566 -0.4855957 1.0924377c-0.3121338 0.3294983 -0.6937866 0.5029602 -1.0924072 0.5029602c-0.3121338 0 -0.57250977 -0.10394287 -0.76293945 -0.3121338c-0.20825195 -0.19082642 -0.3121338 -0.45080566 -0.3121338 -0.74554443c0 -0.41604614 0.19042969 -0.76293945 0.5025635 -1.0924377c0.3295288 -0.3295288 0.6937866 -0.4855652 1.0924683 -0.4855652z" fill-rule="evenodd"/><path fill="#809cd1" d="m858.0751 511.89557l1.3006592 -6.572357c0.034729004 -0.17346191 0.06915283 -0.3468933 0.06915283 -0.5199585c0 -0.9711609 -0.55474854 -1.4219666 -1.6297607 -1.4049377c-0.5899048 0.03475952 -1.2659302 0.24295044 -1.9596558 0.60723877l-1.630188 7.8900146l-1.9766846 0l1.7688599 -8.306427c1.1098022 -0.7107849 2.0635986 -1.1789856 2.826477 -1.4045715c0.72821045 -0.1734314 1.369812 -0.27737427 1.9249268 -0.27737427c0.38128662 0 0.7281494 0.05215454 1.0402832 0.12130737c1.2137451 0.25997925 1.8035889 0.95376587 1.8035889 2.011444c0 0.1734314 -0.01739502 0.3642578 -0.06951904 0.5377197l-1.5258789 7.3179016l-1.9422607 0z" fill-rule="evenodd"/><path fill="#809cd1" d="m865.2717 512.1034c-0.9885254 0 -1.7340698 -0.3812561 -2.2891846 -1.1098022c-0.46820068 -0.6933899 -0.7281494 -1.5258484 -0.7281494 -2.566162c0 -1.1098022 0.31207275 -2.20224 0.8842163 -3.3120728c0.58947754 -1.1098022 1.3527832 -1.9422607 2.2891846 -2.5317383c0.7107544 -0.4512024 1.4910889 -0.6764221 2.3582764 -0.6764221c0.9711304 0 1.8380127 0.3121338 2.6356812 0.8842468l-0.8842163 1.1967163c-0.79766846 -0.43377686 -1.5262451 -0.60687256 -2.1678467 -0.58984375c-0.8494873 0.08691406 -1.595398 0.6589966 -2.2540283 1.7861938c-0.57250977 0.9885254 -0.86724854 1.9422913 -0.86724854 2.9134216c0 0.7107849 0.1560669 1.2658691 0.43341064 1.7167053c0.3121338 0.4855652 0.76330566 0.74554443 1.3701782 0.74554443c0.58947754 0.017364502 1.5432739 -0.25997925 2.757019 -0.7803345l0.32946777 1.2137451c-1.352417 0.72854614 -2.6182861 1.1098022 -3.8667603 1.1098022z" fill-rule="evenodd"/><path fill="#809cd1" d="m871.2368 509.46774l1.2485352 -5.878601l-1.0233154 0l0.3121338 -1.4567261l1.0406494 0l0.52038574 -2.5661316l2.1152954 -0.71118164l-0.6933594 3.2773132l1.6297607 0l-0.3121338 1.4567261l-1.6123657 0l-1.2489014 5.861206c-0.051757812 0.17346191 -0.051757812 0.3294983 -0.051757812 0.45080566c0 0.3294983 0.103881836 0.5550842 0.32946777 0.6590271c0.22521973 0.121276855 0.5895386 0.20819092 1.1098633 0.22558594l-0.24298096 1.2484741l-0.60687256 0c-1.7166748 0 -2.5665283 -0.64160156 -2.5665283 -1.9248657c0 -0.20822144 0 -0.41604614 0.052124023 -0.6416321" fill-rule="evenodd"/><path fill="#809cd1" d="m879.9941 512.05164c-1.1445923 -0.01739502 -2.0465698 -0.39901733 -2.6360474 -1.1271973c-0.55474854 -0.6589966 -0.8324585 -1.5606384 -0.8324585 -2.6704407c0 -0.4855652 0.052124023 -0.9711304 0.1560669 -1.421936c0.29510498 -1.3527832 0.91937256 -2.480011 1.8905029 -3.4507751c1.0576782 -0.9884949 2.2366333 -1.4914551 3.5894165 -1.4740906c1.1098633 0 1.9940796 0.36428833 2.6183472 1.0750732c0.57244873 0.6763916 0.8671875 1.5432434 0.8671875 2.6012878c0 1.6297913 -0.55511475 3.1038513 -1.595398 4.3871155c-1.1445923 1.4045715 -2.4970093 2.0809631 -4.057617 2.0809631zm1.8380127 -8.566406c-1.560669 0.10391235 -2.5665283 1.2137146 -3.034729 3.3641968c-0.121276855 0.5373535 -0.17346191 1.0229187 -0.17346191 1.4737244c0 1.5432434 0.57250977 2.306549 1.7167358 2.306549c1.5261841 -0.01739502 2.5664673 -1.2832642 3.104187 -3.7458801c0.10394287 -0.43341064 0.1560669 -0.8494568 0.1560669 -1.1963501c0 -1.421936 -0.58984375 -2.150116 -1.7687988 -2.20224" fill-rule="evenodd"/><path fill="#809cd1" d="m890.1729 512.05164c-1.1616211 -0.01739502 -2.0462036 -0.39901733 -2.6704712 -1.1271973c-0.5203247 -0.6589966 -0.78027344 -1.5606384 -0.78027344 -2.6704407c0 -0.4855652 0.034729004 -0.9711304 0.13867188 -1.421936c0.27734375 -1.3527832 0.91900635 -2.480011 1.8901367 -3.4507751c1.0576782 -0.9884949 2.2543945 -1.4914551 3.5894165 -1.4740906c1.1271973 0 1.9770508 0.36428833 2.6013184 1.0750732c0.58947754 0.6763916 0.8671875 1.5432434 0.8671875 2.6012878c0 1.6297913 -0.5203247 3.1038513 -1.595398 4.3871155c-1.1098022 1.4045715 -2.4625854 2.0809631 -4.0405884 2.0809631zm1.8209839 -8.566406c-1.5436401 0.10391235 -2.5665283 1.2137146 -3.034729 3.3641968c-0.103881836 0.5373535 -0.1560669 1.0229187 -0.1560669 1.4737244c0 1.5432434 0.57214355 2.306549 1.6993408 2.306549c1.5432129 -0.01739502 2.6012573 -1.2832642 3.1212158 -3.7458801c0.10430908 -0.43341064 0.13867188 -0.8494568 0.13867188 -1.1963501c0 -1.421936 -0.5720825 -2.150116 -1.7684326 -2.20224" fill-rule="evenodd"/><path fill="#809cd1" d="m896.77966 509.4156l2.5665283 -12.294556l2.0114136 -0.60684204l-2.6878052 12.936157c-0.017028809 0.17346191 -0.017028809 0.3294983 -0.017028809 0.45080566c0 0.3121338 0.08654785 0.5377197 0.34655762 0.6590271c0.1907959 0.121276855 0.5377197 0.1734314 1.0406494 0.20819092l-0.27734375 1.2311096l-0.58984375 0c-1.6472168 0 -2.4796753 -0.62423706 -2.4796753 -1.8901062c0 -0.24298096 0.03479004 -0.43344116 0.08654785 -0.6937866" fill-rule="evenodd"/><path fill="#809cd1" d="m904.23627 512.1903c-1.1098022 0 -2.0979614 -0.41641235 -2.965149 -1.2484741l1.0750122 -1.2658997c0.60687256 0.6242676 1.3354492 0.93637085 2.2022705 0.93637085c0.5203247 0 1.0059204 -0.13867188 1.421936 -0.3468628c0.4338379 -0.26000977 0.6763916 -0.6242676 0.7803345 -1.0576782c0.052124023 -0.3468933 -0.051757812 -0.6242676 -0.29473877 -0.8324585c-0.13867188 -0.10391235 -0.39868164 -0.22558594 -0.7977295 -0.39904785c-0.19042969 -0.10391235 -0.45080566 -0.2078247 -0.8150635 -0.38128662c-0.6934204 -0.31210327 -1.1789551 -0.5550842 -1.4389648 -0.74554443c-0.45117188 -0.38165283 -0.64160156 -0.8324585 -0.64160156 -1.3875427c0 -0.1904602 0.01739502 -0.38128662 0.051757812 -0.60687256c0.19085693 -0.93637085 0.71118164 -1.6993103 1.5436401 -2.2713928c0.74554443 -0.5029602 1.5606079 -0.74594116 2.4970093 -0.74594116c0.84942627 0 1.7340698 0.3294983 2.7225342 0.95376587l-1.0580444 1.3180237c-0.6933594 -0.46820068 -1.352417 -0.7111511 -1.9766235 -0.7111511c-0.41644287 0 -0.8150635 0.13903809 -1.1967163 0.3468933c-0.34692383 0.20819092 -0.57214355 0.5203247 -0.6416626 0.90197754c-0.06915283 0.3638916 0.10430908 0.62423706 0.5029297 0.8320923c0.19085693 0.13867188 0.6937866 0.3642578 1.4741211 0.6937561c0.7107544 0.29473877 1.2137451 0.57211304 1.5084839 0.8324585c0.39904785 0.38128662 0.60687256 0.8320923 0.60687256 1.4045715c0 0.1904602 -0.034423828 0.43341064 -0.06915283 0.62423706c-0.22558594 1.0229187 -0.8324585 1.8032227 -1.7862549 2.3927307c-0.8150635 0.5029297 -1.7166748 0.76327515 -2.7052002 0.76327515z" fill-rule="evenodd"/><path fill="#ec1c24" d="m819.47437 496.54895l-1.8379517 -3.1212463l-3.9363403 2.3235474l0 -4.5779724l-3.6245728 0l0 4.5779724l-3.9363403 -2.3235474l-1.8379517 3.1212463l4.0232544 2.358307l-4.0232544 2.375702l1.8379517 3.1212463l3.9363403 -2.3235474l0 4.5605774l3.6245728 0l0 -4.5605774l3.9363403 2.3235474l1.8379517 -3.1212463l-4.022827 -2.375702l4.022827 -2.358307z" fill-rule="evenodd"/><path fill="#000000" fill-opacity="0.0" d="m15.737533 540.8793l31.464565 -144.12598" fill-rule="evenodd"/><path stroke="#cccccc" stroke-width="1.0" stroke-linejoin="round" stroke-linecap="butt" d="m15.737533 540.8793l31.464565 -144.12598" fill-rule="evenodd"/><path fill="#000000" fill-opacity="0.0" d="m904.50397 48.041996l9.952698 -48.031498" fill-rule="evenodd"/><path stroke="#d9d9d9" stroke-width="1.0" stroke-linejoin="round" stroke-linecap="butt" d="m904.50397 48.041996l9.952698 -48.031498" fill-rule="evenodd"/><path fill="#000000" fill-opacity="0.0" d="m607.9764 540.8793l10.7716675 -48.031494" fill-rule="evenodd"/><path stroke="#d9d9d9" stroke-width="1.0" stroke-linejoin="round" stroke-linecap="butt" d="m607.9764 540.8793l10.7716675 -48.031494" fill-rule="evenodd"/></g></svg>